<svg width="343" height="241" viewBox="0 0 343 241" fill="none" xmlns="http://www.w3.org/2000/svg">
<path d="M7.14473 169.398V161.178L43.4087 103.801H49.3721V116.533H45.3428L17.9433 159.889V160.534H66.7788V169.398H7.14473ZM45.9875 186.322V166.9V163.072V103.801H55.4967V186.322H45.9875ZM108.795 187.45C102.724 187.45 97.5529 185.798 93.2818 182.494C89.0107 179.163 85.7469 174.341 83.4905 168.028C81.2341 161.689 80.1059 154.033 80.1059 145.061C80.1059 136.143 81.2341 128.527 83.4905 122.215C85.7738 115.875 89.051 111.04 93.3221 107.709C97.62 104.351 102.778 102.673 108.795 102.673C114.812 102.673 119.956 104.351 124.227 107.709C128.525 111.04 131.802 115.875 134.059 122.215C136.342 128.527 137.484 136.143 137.484 145.061C137.484 154.033 136.355 161.689 134.099 168.028C131.842 174.341 128.579 179.163 124.308 182.494C120.037 185.798 114.866 187.45 108.795 187.45ZM108.795 178.585C114.812 178.585 119.486 175.684 122.817 169.882C126.148 164.08 127.813 155.806 127.813 145.061C127.813 137.916 127.048 131.832 125.516 126.808C124.012 121.785 121.836 117.957 118.989 115.325C116.168 112.692 112.77 111.376 108.795 111.376C102.831 111.376 98.1707 114.317 94.8129 120.2C91.4552 126.056 89.7763 134.343 89.7763 145.061C89.7763 152.207 90.5284 158.277 92.0327 163.274C93.537 168.27 95.6994 172.071 98.5199 174.677C101.367 177.282 104.792 178.585 108.795 178.585Z" fill="white"/>
<path d="M216.973 190.852H8.81494V191.636H216.973V190.852Z" fill="#F99694"/>
<path d="M135.592 159.064L133.409 151.139L153.131 86.1896L158.881 84.6057L162.263 96.8812L158.378 97.9514L143.477 147.028L143.649 147.649L190.731 134.679L193.085 143.225L135.592 159.064ZM177.535 165.063L172.377 146.339L171.36 142.648L155.618 85.5046L164.785 82.979L186.703 162.537L177.535 165.063Z" fill="white"/>
<path d="M6.42902 203.789V202.737H13.7726V203.789H10.6936V212.529H9.50796V203.789H6.42902ZM15.6025 212.529V202.737H16.7882V207.098H22.009V202.737H23.1947V212.529H22.009V208.149H16.7882V212.529H15.6025ZM25.5684 212.529V202.737H31.4777V203.789H26.7541V207.098H31.1717V208.149H26.7541V211.477H31.5542V212.529H25.5684ZM37.4013 212.529V202.737H40.7097C41.4779 202.737 42.1058 202.876 42.5934 203.153C43.0843 203.427 43.4476 203.799 43.6835 204.267C43.9194 204.736 44.0373 205.259 44.0373 205.835C44.0373 206.412 43.9194 206.937 43.6835 207.408C43.4508 207.88 43.0907 208.256 42.603 208.537C42.1153 208.814 41.4906 208.953 40.7289 208.953H38.3575V207.901H40.6906C41.2165 207.901 41.6388 207.81 41.9576 207.628C42.2763 207.447 42.5074 207.201 42.6508 206.892C42.7974 206.58 42.8707 206.227 42.8707 205.835C42.8707 205.443 42.7974 205.093 42.6508 204.784C42.5074 204.474 42.2747 204.232 41.9528 204.057C41.6309 203.878 41.2038 203.789 40.6715 203.789H38.587V212.529H37.4013ZM45.3497 212.529H44.1066L47.7019 202.737H48.9258L52.5211 212.529H51.2781L48.3521 204.286H48.2756L45.3497 212.529ZM45.8086 208.704H50.8191V209.756H45.8086V208.704ZM60.2794 205.797C60.1742 205.475 60.0356 205.187 59.8635 204.932C59.6946 204.674 59.4922 204.454 59.2563 204.272C59.0236 204.09 58.7591 203.952 58.4627 203.856C58.1662 203.761 57.8411 203.713 57.4873 203.713C56.9073 203.713 56.3798 203.863 55.9048 204.162C55.4299 204.462 55.0522 204.903 54.7718 205.486C54.4913 206.07 54.351 206.785 54.351 207.633C54.351 208.481 54.4929 209.196 54.7765 209.78C55.0602 210.363 55.4443 210.804 55.9288 211.104C56.4132 211.404 56.9583 211.553 57.5638 211.553C58.1248 211.553 58.6188 211.434 59.0459 211.195C59.4762 210.953 59.8109 210.612 60.0499 210.172C60.2922 209.729 60.4133 209.208 60.4133 208.608L60.7767 208.685H57.8316V207.633H61.5607V208.685C61.5607 209.491 61.3886 210.193 61.0444 210.789C60.7033 211.385 60.2316 211.847 59.6292 212.175C59.03 212.5 58.3415 212.663 57.5638 212.663C56.6969 212.663 55.9351 212.459 55.2785 212.051C54.6251 211.643 54.1152 211.063 53.7486 210.31C53.3853 209.558 53.2036 208.666 53.2036 207.633C53.2036 206.859 53.3072 206.162 53.5144 205.544C53.7247 204.922 54.0211 204.393 54.4036 203.957C54.7861 203.52 55.2387 203.185 55.7614 202.953C56.2841 202.72 56.8594 202.604 57.4873 202.604C58.0037 202.604 58.485 202.682 58.9312 202.838C59.3806 202.991 59.7806 203.209 60.1312 203.493C60.485 203.773 60.7798 204.11 61.0157 204.502C61.2516 204.89 61.4141 205.322 61.5034 205.797H60.2794ZM63.5914 212.529V202.737H69.5007V203.789H64.7771V207.098H69.1947V208.149H64.7771V211.477H69.5772V212.529H63.5914ZM74.5829 202.737H75.9407L78.6563 207.308H78.771L81.4866 202.737H82.8444L79.3065 208.494V212.529H78.1208V208.494L74.5829 202.737ZM92.1792 207.633C92.1792 208.666 91.9928 209.558 91.6199 210.31C91.2469 211.063 90.7354 211.643 90.0852 212.051C89.435 212.459 88.6923 212.663 87.8572 212.663C87.0222 212.663 86.2795 212.459 85.6293 212.051C84.9791 211.643 84.4675 211.063 84.0946 210.31C83.7217 209.558 83.5352 208.666 83.5352 207.633C83.5352 206.6 83.7217 205.708 84.0946 204.956C84.4675 204.204 84.9791 203.623 85.6293 203.215C86.2795 202.808 87.0222 202.604 87.8572 202.604C88.6923 202.604 89.435 202.808 90.0852 203.215C90.7354 203.623 91.2469 204.204 91.6199 204.956C91.9928 205.708 92.1792 206.6 92.1792 207.633ZM91.0318 207.633C91.0318 206.785 90.89 206.07 90.6063 205.486C90.3258 204.903 89.9449 204.462 89.4636 204.162C88.9855 203.863 88.4501 203.713 87.8572 203.713C87.2644 203.713 86.7273 203.863 86.2461 204.162C85.768 204.462 85.3871 204.903 85.1034 205.486C84.8229 206.07 84.6827 206.785 84.6827 207.633C84.6827 208.481 84.8229 209.196 85.1034 209.78C85.3871 210.363 85.768 210.804 86.2461 211.104C86.7273 211.404 87.2644 211.553 87.8572 211.553C88.4501 211.553 88.9855 211.404 89.4636 211.104C89.9449 210.804 90.3258 210.363 90.6063 209.78C90.89 209.196 91.0318 208.481 91.0318 207.633ZM100.599 202.737H101.784V209.22C101.784 209.89 101.626 210.487 101.311 211.013C100.999 211.536 100.557 211.949 99.9865 212.252C99.416 212.551 98.7467 212.701 97.9785 212.701C97.2104 212.701 96.5411 212.551 95.9705 212.252C95.4 211.949 94.957 211.536 94.6414 211.013C94.3291 210.487 94.1729 209.89 94.1729 209.22V202.737H95.3586V209.125C95.3586 209.603 95.4638 210.028 95.6741 210.401C95.8845 210.771 96.1841 211.063 96.5729 211.276C96.965 211.487 97.4335 211.592 97.9785 211.592C98.5236 211.592 98.9921 211.487 99.3841 211.276C99.7762 211.063 100.076 210.771 100.283 210.401C100.493 210.028 100.599 209.603 100.599 209.125V202.737ZM104.993 202.737V203.598C104.993 203.859 104.946 204.138 104.85 204.435C104.758 204.728 104.62 205.013 104.439 205.29C104.26 205.565 104.044 205.804 103.789 206.008L103.177 205.51C103.377 205.223 103.551 204.925 103.698 204.616C103.848 204.304 103.922 203.971 103.922 203.617V202.737H104.993ZM106.637 212.529V202.737H109.945C110.71 202.737 111.338 202.868 111.829 203.129C112.32 203.388 112.683 203.743 112.919 204.196C113.155 204.648 113.273 205.163 113.273 205.74C113.273 206.317 113.155 206.828 112.919 207.275C112.683 207.721 112.321 208.071 111.834 208.326C111.346 208.578 110.723 208.704 109.964 208.704H107.287V207.633H109.926C110.449 207.633 110.87 207.557 111.188 207.404C111.51 207.251 111.743 207.034 111.886 206.753C112.033 206.47 112.106 206.132 112.106 205.74C112.106 205.348 112.033 205.005 111.886 204.712C111.74 204.419 111.505 204.192 111.184 204.033C110.862 203.87 110.436 203.789 109.907 203.789H107.823V212.529H106.637ZM111.246 208.13L113.655 212.529H112.278L109.907 208.13H111.246ZM115.249 212.529V202.737H121.158V203.789H116.434V207.098H120.852V208.149H116.434V211.477H121.234V212.529H115.249ZM127.081 212.529V202.737H128.267V211.477H132.819V212.529H127.081ZM142.535 207.633C142.535 208.666 142.348 209.558 141.975 210.31C141.602 211.063 141.091 211.643 140.441 212.051C139.79 212.459 139.048 212.663 138.213 212.663C137.378 212.663 136.635 212.459 135.985 212.051C135.335 211.643 134.823 211.063 134.45 210.31C134.077 209.558 133.891 208.666 133.891 207.633C133.891 206.6 134.077 205.708 134.45 204.956C134.823 204.204 135.335 203.623 135.985 203.215C136.635 202.808 137.378 202.604 138.213 202.604C139.048 202.604 139.79 202.808 140.441 203.215C141.091 203.623 141.602 204.204 141.975 204.956C142.348 205.708 142.535 206.6 142.535 207.633ZM141.387 207.633C141.387 206.785 141.245 206.07 140.962 205.486C140.681 204.903 140.3 204.462 139.819 204.162C139.341 203.863 138.806 203.713 138.213 203.713C137.62 203.713 137.083 203.863 136.602 204.162C136.123 204.462 135.743 204.903 135.459 205.486C135.178 206.07 135.038 206.785 135.038 207.633C135.038 208.481 135.178 209.196 135.459 209.78C135.743 210.363 136.123 210.804 136.602 211.104C137.083 211.404 137.62 211.553 138.213 211.553C138.806 211.553 139.341 211.404 139.819 211.104C140.3 210.804 140.681 210.363 140.962 209.78C141.245 209.196 141.387 208.481 141.387 207.633ZM152.79 207.633C152.79 208.666 152.603 209.558 152.231 210.31C151.858 211.063 151.346 211.643 150.696 212.051C150.046 212.459 149.303 212.663 148.468 212.663C147.633 212.663 146.89 212.459 146.24 212.051C145.59 211.643 145.078 211.063 144.705 210.31C144.332 209.558 144.146 208.666 144.146 207.633C144.146 206.6 144.332 205.708 144.705 204.956C145.078 204.204 145.59 203.623 146.24 203.215C146.89 202.808 147.633 202.604 148.468 202.604C149.303 202.604 150.046 202.808 150.696 203.215C151.346 203.623 151.858 204.204 152.231 204.956C152.603 205.708 152.79 206.6 152.79 207.633ZM151.642 207.633C151.642 206.785 151.501 206.07 151.217 205.486C150.936 204.903 150.556 204.462 150.074 204.162C149.596 203.863 149.061 203.713 148.468 203.713C147.875 203.713 147.338 203.863 146.857 204.162C146.379 204.462 145.998 204.903 145.714 205.486C145.434 206.07 145.293 206.785 145.293 207.633C145.293 208.481 145.434 209.196 145.714 209.78C145.998 210.363 146.379 210.804 146.857 211.104C147.338 211.404 147.875 211.553 148.468 211.553C149.061 211.553 149.596 211.404 150.074 211.104C150.556 210.804 150.936 210.363 151.217 209.78C151.501 209.196 151.642 208.481 151.642 207.633ZM154.784 212.529V202.737H155.969V207.595H156.084L160.482 202.737H162.032L157.92 207.155L162.032 212.529H160.597L157.193 207.977L155.969 209.354V212.529H154.784ZM164.752 202.737V212.529H163.566V202.737H164.752ZM174.894 202.737V212.529H173.746L168.411 204.841H168.315V212.529H167.129V202.737H168.277L173.631 210.444H173.727V202.737H174.894ZM183.959 205.797C183.854 205.475 183.716 205.187 183.543 204.932C183.375 204.674 183.172 204.454 182.936 204.272C182.704 204.09 182.439 203.952 182.143 203.856C181.846 203.761 181.521 203.713 181.167 203.713C180.587 203.713 180.06 203.863 179.585 204.162C179.11 204.462 178.732 204.903 178.452 205.486C178.171 206.07 178.031 206.785 178.031 207.633C178.031 208.481 178.173 209.196 178.457 209.78C178.74 210.363 179.124 210.804 179.609 211.104C180.093 211.404 180.638 211.553 181.244 211.553C181.805 211.553 182.299 211.434 182.726 211.195C183.156 210.953 183.491 210.612 183.73 210.172C183.972 209.729 184.093 209.208 184.093 208.608L184.457 208.685H181.512V207.633H185.241V208.685C185.241 209.491 185.069 210.193 184.724 210.789C184.383 211.385 183.912 211.847 183.309 212.175C182.71 212.5 182.022 212.663 181.244 212.663C180.377 212.663 179.615 212.459 178.959 212.051C178.305 211.643 177.795 211.063 177.429 210.31C177.065 209.558 176.884 208.666 176.884 207.633C176.884 206.859 176.987 206.162 177.194 205.544C177.405 204.922 177.701 204.393 178.084 203.957C178.466 203.52 178.919 203.185 179.441 202.953C179.964 202.72 180.539 202.604 181.167 202.604C181.684 202.604 182.165 202.682 182.611 202.838C183.061 202.991 183.461 203.209 183.811 203.493C184.165 203.773 184.46 204.11 184.696 204.502C184.932 204.89 185.094 205.322 185.183 205.797H183.959Z" fill="#F99694"/>
<path d="M6.96449 228.685V218.893H12.8355V219.945H8.15017V223.254H12.3957V224.305H8.15017V228.685H6.96449ZM23.1277 223.789C23.1277 224.822 22.9413 225.714 22.5684 226.466C22.1955 227.219 21.6839 227.799 21.0337 228.207C20.3835 228.615 19.6408 228.819 18.8057 228.819C17.9707 228.819 17.228 228.615 16.5778 228.207C15.9276 227.799 15.416 227.219 15.0431 226.466C14.6702 225.714 14.4838 224.822 14.4838 223.789C14.4838 222.756 14.6702 221.864 15.0431 221.112C15.416 220.36 15.9276 219.779 16.5778 219.371C17.228 218.964 17.9707 218.76 18.8057 218.76C19.6408 218.76 20.3835 218.964 21.0337 219.371C21.6839 219.779 22.1955 220.36 22.5684 221.112C22.9413 221.864 23.1277 222.756 23.1277 223.789ZM21.9803 223.789C21.9803 222.941 21.8385 222.226 21.5548 221.642C21.2743 221.059 20.8934 220.618 20.4121 220.318C19.9341 220.019 19.3986 219.869 18.8057 219.869C18.2129 219.869 17.6758 220.019 17.1946 220.318C16.7165 220.618 16.3356 221.059 16.0519 221.642C15.7714 222.226 15.6312 222.941 15.6312 223.789C15.6312 224.637 15.7714 225.352 16.0519 225.936C16.3356 226.519 16.7165 226.96 17.1946 227.26C17.6758 227.56 18.2129 227.709 18.8057 227.709C19.3986 227.709 19.9341 227.56 20.4121 227.26C20.8934 226.96 21.2743 226.519 21.5548 225.936C21.8385 225.352 21.9803 224.637 21.9803 223.789ZM25.1214 228.685V218.893H28.4298C29.1948 218.893 29.8227 219.024 30.3135 219.285C30.8044 219.544 31.1677 219.899 31.4036 220.352C31.6395 220.804 31.7574 221.319 31.7574 221.896C31.7574 222.473 31.6395 222.984 31.4036 223.431C31.1677 223.877 30.806 224.227 30.3183 224.482C29.8307 224.734 29.2075 224.86 28.449 224.86H25.7716V223.789H28.4107C28.9334 223.789 29.3542 223.713 29.6729 223.56C29.9948 223.407 30.2275 223.19 30.3709 222.909C30.5175 222.626 30.5908 222.288 30.5908 221.896C30.5908 221.504 30.5175 221.161 30.3709 220.868C30.2243 220.575 29.99 220.348 29.6681 220.189C29.3462 220.026 28.9207 219.945 28.3916 219.945H26.3071V228.685H25.1214ZM29.7303 224.286L32.1399 228.685H30.7629L28.3916 224.286H29.7303ZM40.5412 228.685H37.5196V218.893H40.6751C41.6249 218.893 42.4377 219.089 43.1134 219.481C43.7891 219.87 44.307 220.43 44.6672 221.16C45.0274 221.886 45.2074 222.756 45.2074 223.77C45.2074 224.79 45.0258 225.668 44.6624 226.404C44.2991 227.137 43.77 227.702 43.0751 228.097C42.3803 228.489 41.5357 228.685 40.5412 228.685ZM38.7053 227.633H40.4647C41.2743 227.633 41.9452 227.477 42.4775 227.164C43.0098 226.852 43.4066 226.407 43.668 225.831C43.9293 225.254 44.06 224.567 44.06 223.77C44.06 222.98 43.9309 222.299 43.6727 221.729C43.4146 221.155 43.0289 220.715 42.5158 220.409C42.0026 220.1 41.3635 219.945 40.5986 219.945H38.7053V227.633ZM55.4578 223.789C55.4578 224.822 55.2714 225.714 54.8985 226.466C54.5255 227.219 54.014 227.799 53.3638 228.207C52.7135 228.615 51.9709 228.819 51.1358 228.819C50.3008 228.819 49.5581 228.615 48.9079 228.207C48.2577 227.799 47.7461 227.219 47.3732 226.466C47.0003 225.714 46.8138 224.822 46.8138 223.789C46.8138 222.756 47.0003 221.864 47.3732 221.112C47.7461 220.36 48.2577 219.779 48.9079 219.371C49.5581 218.964 50.3008 218.76 51.1358 218.76C51.9709 218.76 52.7135 218.964 53.3638 219.371C54.014 219.779 54.5255 220.36 54.8985 221.112C55.2714 221.864 55.4578 222.756 55.4578 223.789ZM54.3104 223.789C54.3104 222.941 54.1686 222.226 53.8849 221.642C53.6044 221.059 53.2235 220.618 52.7422 220.318C52.2641 220.019 51.7287 219.869 51.1358 219.869C50.543 219.869 50.0059 220.019 49.5246 220.318C49.0465 220.618 48.6657 221.059 48.382 221.642C48.1015 222.226 47.9613 222.941 47.9613 223.789C47.9613 224.637 48.1015 225.352 48.382 225.936C48.6657 226.519 49.0465 226.96 49.5246 227.26C50.0059 227.56 50.543 227.709 51.1358 227.709C51.7287 227.709 52.2641 227.56 52.7422 227.26C53.2235 226.96 53.6044 226.519 53.8849 225.936C54.1686 225.352 54.3104 224.637 54.3104 223.789ZM57.4515 228.685V218.893H63.3608V219.945H58.6372V223.254H63.0548V224.305H58.6372V227.633H63.4373V228.685H57.4515ZM70.8525 221.341C70.7952 220.857 70.5625 220.481 70.1545 220.213C69.7465 219.945 69.2461 219.811 68.6533 219.811C68.2198 219.811 67.8405 219.881 67.5154 220.022C67.1935 220.162 66.9417 220.355 66.76 220.6C66.5815 220.846 66.4923 221.125 66.4923 221.437C66.4923 221.698 66.5544 221.923 66.6787 222.111C66.8062 222.296 66.9688 222.45 67.1664 222.575C67.364 222.696 67.5712 222.796 67.7879 222.876C68.0047 222.952 68.2039 223.015 68.3856 223.062L69.38 223.33C69.635 223.397 69.9187 223.489 70.231 223.607C70.5466 223.725 70.8478 223.886 71.1346 224.09C71.4247 224.291 71.6637 224.549 71.8518 224.865C72.0398 225.18 72.1338 225.568 72.1338 226.027C72.1338 226.556 71.9952 227.034 71.7179 227.461C71.4438 227.888 71.0422 228.227 70.5131 228.479C69.9872 228.731 69.3481 228.857 68.5959 228.857C67.8947 228.857 67.2875 228.744 66.7744 228.517C66.2644 228.291 65.8628 227.976 65.5696 227.571C65.2795 227.166 65.1154 226.696 65.0771 226.16H66.3011C66.3329 226.53 66.4572 226.836 66.674 227.078C66.8939 227.317 67.1712 227.496 67.5059 227.614C67.8437 227.729 68.2071 227.786 68.5959 227.786C69.0485 227.786 69.4549 227.713 69.8151 227.566C70.1752 227.416 70.4605 227.209 70.6709 226.945C70.8812 226.677 70.9864 226.364 70.9864 226.007C70.9864 225.682 70.8956 225.418 70.7139 225.214C70.5322 225.01 70.2932 224.844 69.9967 224.717C69.7003 224.589 69.38 224.478 69.0358 224.382L67.831 224.038C67.066 223.818 66.4604 223.504 66.0142 223.096C65.568 222.688 65.3449 222.154 65.3449 221.494C65.3449 220.946 65.4931 220.468 65.7895 220.06C66.0891 219.649 66.4907 219.33 66.9943 219.104C67.5011 218.874 68.0668 218.76 68.6915 218.76C69.3226 218.76 69.8836 218.873 70.3744 219.099C70.8653 219.322 71.2541 219.628 71.541 220.017C71.831 220.406 71.984 220.847 72 221.341H70.8525ZM81.8476 218.893V228.685H80.7001L75.3646 220.997H75.2689V228.685H74.0833V218.893H75.2307L80.5854 226.6H80.681V218.893H81.8476ZM85.0616 218.893V219.754C85.0616 220.015 85.0138 220.294 84.9181 220.591C84.8257 220.884 84.6887 221.169 84.507 221.446C84.3285 221.721 84.1118 221.96 83.8568 222.164L83.2448 221.666C83.4456 221.379 83.6193 221.081 83.7659 220.772C83.9157 220.46 83.9906 220.127 83.9906 219.773V218.893H85.0616ZM86.1696 219.945V218.893H93.5131V219.945H90.4342V228.685H89.2485V219.945H86.1696ZM99.1296 228.685V218.893H105.039V219.945H100.315V223.254H104.733V224.305H100.315V227.633H105.115V228.685H99.1296ZM107.75 218.893L110.274 222.967H110.35L112.875 218.893H114.271L111.192 223.789L114.271 228.685H112.875L110.35 224.688H110.274L107.75 228.685H106.354L109.509 223.789L106.354 218.893H107.75ZM117 218.893V228.685H115.814V218.893H117ZM124.732 221.341C124.674 220.857 124.442 220.481 124.034 220.213C123.626 219.945 123.125 219.811 122.532 219.811C122.099 219.811 121.72 219.881 121.395 220.022C121.073 220.162 120.821 220.355 120.639 220.6C120.461 220.846 120.371 221.125 120.371 221.437C120.371 221.698 120.434 221.923 120.558 222.111C120.685 222.296 120.848 222.45 121.046 222.575C121.243 222.696 121.45 222.796 121.667 222.876C121.884 222.952 122.083 223.015 122.265 223.062L123.259 223.33C123.514 223.397 123.798 223.489 124.11 223.607C124.426 223.725 124.727 223.886 125.014 224.09C125.304 224.291 125.543 224.549 125.731 224.865C125.919 225.18 126.013 225.568 126.013 226.027C126.013 226.556 125.874 227.034 125.597 227.461C125.323 227.888 124.921 228.227 124.392 228.479C123.866 228.731 123.227 228.857 122.475 228.857C121.774 228.857 121.167 228.744 120.653 228.517C120.143 228.291 119.742 227.976 119.449 227.571C119.159 227.166 118.994 226.696 118.956 226.16H120.18C120.212 226.53 120.336 226.836 120.553 227.078C120.773 227.317 121.05 227.496 121.385 227.614C121.723 227.729 122.086 227.786 122.475 227.786C122.928 227.786 123.334 227.713 123.694 227.566C124.054 227.416 124.34 227.209 124.55 226.945C124.76 226.677 124.865 226.364 124.865 226.007C124.865 225.682 124.775 225.418 124.593 225.214C124.411 225.01 124.172 224.844 123.876 224.717C123.579 224.589 123.259 224.478 122.915 224.382L121.71 224.038C120.945 223.818 120.34 223.504 119.893 223.096C119.447 222.688 119.224 222.154 119.224 221.494C119.224 220.946 119.372 220.468 119.669 220.06C119.968 219.649 120.37 219.33 120.873 219.104C121.38 218.874 121.946 218.76 122.571 218.76C123.202 218.76 123.763 218.873 124.254 219.099C124.744 219.322 125.133 219.628 125.42 220.017C125.71 220.406 125.863 220.847 125.879 221.341H124.732ZM127.427 219.945V218.893H134.77V219.945H131.692V228.685H130.506V219.945H127.427ZM136.81 228.761C136.574 228.761 136.371 228.677 136.202 228.508C136.033 228.339 135.949 228.137 135.949 227.901C135.949 227.665 136.033 227.462 136.202 227.294C136.371 227.125 136.574 227.04 136.81 227.04C137.045 227.04 137.248 227.125 137.417 227.294C137.586 227.462 137.67 227.665 137.67 227.901C137.67 228.057 137.63 228.2 137.551 228.331C137.474 228.462 137.371 228.567 137.24 228.647C137.112 228.723 136.969 228.761 136.81 228.761Z" fill="#F99694"/>
<path d="M342.463 230.85C342.463 236.27 318.164 240.663 288.188 240.663C258.213 240.663 233.914 236.269 233.914 230.85C233.914 225.43 258.214 221.036 288.188 221.036C318.164 221.036 342.463 225.43 342.463 230.85Z" fill="#2B2B2B"/>
<path d="M163.801 184.508C166.29 185.537 168.78 186.569 171.27 187.598C171.968 187.887 172.272 186.75 171.582 186.463C169.093 185.434 166.603 184.404 164.115 183.374C163.415 183.085 163.11 184.223 163.801 184.508Z" fill="white"/>
<path d="M177.461 173.507C178.375 175.076 179.29 176.644 180.204 178.211C180.586 178.865 181.601 178.274 181.22 177.617C180.306 176.051 179.391 174.482 178.476 172.913C178.095 172.261 177.078 172.852 177.461 173.507Z" fill="white"/>
<path d="M194.522 169.501C194.157 171.336 193.792 173.17 193.426 175.005C193.278 175.744 194.411 176.061 194.56 175.318C194.925 173.483 195.29 171.649 195.655 169.814C195.803 169.074 194.67 168.758 194.522 169.501Z" fill="white"/>
<path d="M207.855 172.311C206.548 173.226 205.243 174.141 203.936 175.055C203.32 175.487 203.907 176.506 204.53 176.071C205.837 175.157 207.142 174.242 208.449 173.327C209.065 172.895 208.478 171.876 207.855 172.311Z" fill="white"/>
<path d="M206.741 185.147C209.485 184.102 212.229 183.055 214.973 182.01C215.674 181.743 215.37 180.606 214.66 180.876C211.917 181.922 209.172 182.967 206.428 184.012C205.727 184.279 206.032 185.416 206.741 185.147Z" fill="white"/>
<path d="M265.779 174.191C265.779 174.191 256.371 202.024 257.154 203.592C257.938 205.159 271.659 214.568 271.659 214.568L260.681 219.665C260.681 219.665 258.681 225.051 259.114 225.153C277.699 229.526 295.179 225.153 295.179 225.153C295.179 225.153 295.179 220.448 289.299 213.392C286.931 210.552 266.562 202.024 266.562 202.024L286.947 179.288L265.779 174.191Z" fill="url(#paint0_linear_11_135)"/>
<path d="M257.686 95.099C284.122 90.755 341.121 154.051 309.879 188.696C302.496 196.884 277.146 202.417 265.385 184.971C255.339 170.068 275.477 119.092 259.294 117.091C243.111 115.09 252.246 95.993 257.686 95.099Z" fill="url(#paint1_linear_11_135)"/>
<path d="M287.339 183.795C287.339 183.795 277.931 211.628 278.715 213.196C279.498 214.763 293.22 224.172 293.22 224.172L282.243 229.268C282.243 229.268 280.241 234.655 280.675 234.757C299.259 239.13 316.74 234.757 316.74 234.757C316.74 234.757 316.74 230.053 310.859 222.996C308.492 220.155 288.123 211.628 288.123 211.628L308.508 188.891L287.339 183.795Z" fill="#F99694"/>
<path d="M195.02 150.964C195.02 150.964 233.768 181.324 273.52 148.906L226.773 155.08C226.773 155.08 199.43 133.912 189.14 143.32C184.38 147.671 180.981 149.715 180.981 149.715L181.79 152.14C181.79 152.14 190.486 150.472 195.02 150.964Z" fill="url(#paint2_linear_11_135)"/>
<path d="M272.673 145.449C272.673 145.449 266.34 135.185 247.557 148.119C247.557 148.119 248.253 155.709 256.692 163.54C256.692 163.54 275.236 154.913 272.673 145.449Z" fill="#1FFFA4"/>
<path d="M249.579 145.726C249.579 145.726 253.182 156.504 260.427 162.287L254.775 165.63C254.775 165.63 247.457 159.277 244.422 148.425L249.579 145.726Z" fill="#C5EFDD"/>
<path d="M259.114 178.895C266.081 191.436 295.571 196.732 316.152 185.168C316.152 185.168 329.873 156.355 304.294 124.895L294.592 111.371L263.427 137.832C263.427 137.832 258.135 177.131 259.114 178.895Z" fill="#20D386"/>
<path d="M290.671 104.609C291.455 105.001 303.412 116.173 304.588 118.722C305.764 121.27 304.588 125.974 303.02 128.13C301.452 130.286 284.988 154.982 261.076 151.063C237.162 147.143 274.6 111.665 274.6 111.665L290.671 104.609Z" fill="#C5EFDD"/>
<path d="M295.673 91.567C304.359 113.156 293.014 138.057 270.33 147.184C247.648 156.311 222.218 146.209 213.53 124.62C204.843 103.031 216.188 78.13 238.871 69.003C261.555 59.876 286.985 69.978 295.673 91.567Z" fill="url(#paint3_linear_11_135)"/>
<path d="M270.287 108.137C270.287 120.261 278.439 130.09 288.497 130.09C289.569 130.09 290.614 129.956 291.637 129.741C298.897 118.547 300.864 104.467 295.673 91.567C295.04 89.996 294.31 88.493 293.507 87.046C291.914 86.497 290.236 86.184 288.497 86.184C278.439 86.184 270.287 96.0129 270.287 108.137Z" fill="url(#paint4_linear_11_135)"/>
<path d="M226.024 122.895C227.515 126.597 226.875 130.342 224.594 131.259C222.316 132.176 219.259 129.918 217.77 126.216C216.281 122.514 220.991 123.524 222.265 118.722C222.895 116.347 224.535 119.192 226.024 122.895Z" fill="#FFAEAE"/>
<path d="M257.119 119.646C257.119 124.78 254.144 128.941 250.474 128.941C246.803 128.941 243.829 124.78 243.829 119.646C243.829 114.513 249.326 108.492 250.196 112.057C251.976 119.349 257.119 114.513 257.119 119.646Z" fill="#FFAEAE"/>
<path d="M257.239 119.352C257.239 124.486 254.451 128.647 251.011 128.647C247.572 128.647 244.784 124.486 244.784 119.352C244.784 114.219 248.74 109.4 250.587 112.302C253.675 117.153 257.239 114.219 257.239 119.352Z" fill="#383838"/>
<path d="M226.025 122.677C227.489 126.313 226.968 129.947 224.866 130.793C222.762 131.64 219.87 129.378 218.407 125.743C216.943 122.107 220.011 124.798 222.51 118.918C223.397 116.83 224.563 119.041 226.025 122.677Z" fill="#383838"/>
<path d="M234.613 146.946C234.309 146.946 234.053 146.714 234.028 146.406C234.01 146.183 233.641 140.902 238.924 138.152C242.874 136.097 253.2 133.895 264.02 140.265C264.299 140.43 264.393 140.79 264.228 141.07C264.062 141.351 263.702 141.442 263.422 141.278C253.048 135.17 243.217 137.245 239.467 139.195C234.892 141.576 235.186 146.119 235.2 146.311C235.224 146.635 234.984 146.918 234.66 146.943C234.645 146.945 234.629 146.946 234.613 146.946Z" fill="#383838"/>
<path d="M249.02 66.388C249.02 66.388 225.206 63.154 211.387 70.21C193.448 79.37 215.209 80.206 214.326 80.5C213.444 80.794 189.924 99.806 200.311 131.559C201.955 136.583 205.189 98.849 215.404 97.944C216.488 97.848 214.907 102.072 215.209 105.001C215.622 109.034 217.768 112.004 218.736 110.489C234.025 86.576 253.506 92.2 267.345 85.008C284.537 76.074 297.175 98.292 294.198 88.732C286.75 64.819 254.311 55.509 244.609 57.273C233.596 59.276 249.02 66.388 249.02 66.388Z" fill="#F99694"/>
<path d="M246.766 71.0919C246.766 71.0919 268.719 76.3839 275.383 95.1999C282.047 114.017 281.851 87.3599 281.851 87.3599L273.031 76.1879C273.031 76.1879 248.922 63.6439 246.766 71.0919Z" fill="url(#paint5_linear_11_135)"/>
<path d="M296.747 143.81C296.747 143.81 303.019 212.021 310.075 214.764C317.132 217.508 329.285 211.628 329.285 208.884C329.285 206.14 326.54 204.964 326.54 204.964L319.092 206.924C319.092 206.924 314.388 197.123 312.428 194.772C310.468 192.419 309.292 143.81 309.292 143.81C309.292 143.81 300.275 128.13 296.747 143.81Z" fill="#F99694"/>
<path d="M303.216 133.814C303.216 133.814 290.28 135.137 294.004 159.442C294.004 159.442 301.696 162.333 313.262 157.825C313.262 157.825 313.603 135.774 303.216 133.814Z" fill="#1FFFA4"/>
<path d="M292.631 156.355C292.631 156.355 304.783 157.923 313.8 153.611L314.388 160.667C314.388 160.667 304.783 164.783 292.828 162.627L292.631 156.355Z" fill="#C5EFDD"/>
<path d="M241.474 141.654C241.474 141.654 245.444 138.076 250.294 141.163C255.145 144.251 237.505 149.004 241.474 141.654Z" fill="url(#paint6_linear_11_135)"/>
<path d="M279.871 103.139C279.871 91.8989 286.744 82.7879 295.221 82.7879C295.875 82.7879 296.515 82.8599 297.147 82.9649C294.944 81.8229 292.517 81.1859 289.967 81.1859C279.91 81.1859 271.757 91.0149 271.757 103.139C271.757 115.262 279.91 125.091 289.967 125.091C292.517 125.091 294.944 124.454 297.147 123.312C296.515 123.417 295.876 123.489 295.221 123.489C286.744 123.49 279.871 114.378 279.871 103.139Z" fill="white"/>
<path d="M296.985 121.436C289.444 121.436 283.332 113.331 283.332 103.335C283.332 93.3379 289.444 85.2328 296.985 85.2328C298.645 85.2328 300.229 85.6459 301.701 86.3649C300.338 84.9779 298.807 83.8248 297.146 82.9648C296.514 82.8598 295.875 82.7878 295.22 82.7878C286.743 82.7878 279.87 91.8989 279.87 103.139C279.87 114.378 286.743 123.489 295.22 123.489C295.874 123.489 296.514 123.417 297.146 123.312C298.487 122.618 299.733 121.72 300.885 120.677C299.648 121.165 298.342 121.436 296.985 121.436Z" fill="#20D386"/>
<path d="M308.176 103.139C308.176 96.4069 305.657 90.3919 301.701 86.3649C300.229 85.6459 298.645 85.2329 296.985 85.2329C289.444 85.2329 283.332 93.3379 283.332 103.335C283.332 113.331 289.444 121.436 296.985 121.436C298.341 121.436 299.648 121.165 300.885 120.677C305.305 116.671 308.176 110.317 308.176 103.139Z" fill="#C5EFDD"/>
<path d="M279.696 88.6939L285.281 83.3419C268.522 59.8209 247.059 64.8189 247.059 64.8189C247.059 64.8189 242.944 65.9949 240.591 68.0529C240.591 68.0529 266.316 64.9629 279.696 88.6939Z" fill="white"/>
<path d="M240.886 70.6999C264.701 67.4659 278.225 90.1039 278.225 90.1039L279.697 88.6939C266.317 64.9629 240.593 68.0529 240.593 68.0529C238.24 70.1119 240.886 70.6999 240.886 70.6999Z" fill="#AFDDC8"/>
<path d="M248.04 70.994C248.04 70.994 241.082 67.76 237.849 61.88C234.615 56 231.869 54.824 233.045 62.958C234.222 71.093 236.476 73.248 236.476 73.248C236.476 73.248 227.95 57.568 226.382 60.214C224.814 62.86 231.086 77.561 231.086 77.561C231.086 77.561 258.624 77.756 248.04 70.994Z" fill="#F99694"/>
<path d="M271.018 160.256C270.87 162.931 269.501 165.031 267.961 164.946C266.421 164.861 265.292 162.623 265.44 159.948C265.586 157.273 266.956 155.173 268.496 155.258C270.035 155.344 271.164 157.581 271.018 160.256Z" fill="#C5EFDD"/>
<path d="M270.137 160.208C269.989 162.883 268.62 164.983 267.08 164.898C265.54 164.813 264.411 162.576 264.559 159.901C264.706 157.226 266.075 155.126 267.615 155.211C269.154 155.295 270.283 157.533 270.137 160.208Z" fill="white"/>
<path d="M269.253 174.222C269.105 176.897 267.737 178.996 266.197 178.912C264.657 178.827 263.528 176.59 263.674 173.914C263.822 171.239 265.191 169.139 266.731 169.224C268.271 169.309 269.4 171.546 269.253 174.222Z" fill="#C5EFDD"/>
<path d="M268.372 174.173C268.224 176.849 266.856 178.948 265.316 178.863C263.776 178.778 262.647 176.541 262.794 173.865C262.942 171.19 264.311 169.09 265.851 169.175C267.391 169.26 268.52 171.498 268.372 174.173Z" fill="white"/>
<path d="M253.779 15.858C242.299 9.308 259.418 -4.52 264.026 7.705C266.454 14.144 260.665 22.202 257.934 27.899C257.201 29.427 259.483 30.771 260.218 29.235C262.927 23.584 268.024 16.317 267.338 9.694C266.84 4.885 262.934 0.674995 258.061 0.208995C247.521 -0.802005 243.418 12.994 252.444 18.144C253.926 18.988 255.26 16.702 253.779 15.858Z" fill="white"/>
<path d="M259.455 38.817C259.551 40.087 259.646 41.356 259.741 42.627C260.607 42.51 261.474 42.393 262.341 42.275C262.211 41.402 262.081 40.529 261.951 39.656C261.845 38.948 260.952 38.559 260.323 38.732C259.565 38.94 259.294 39.65 259.399 40.36C259.529 41.232 259.659 42.106 259.788 42.978C260.007 44.444 262.499 44.11 262.388 42.627C262.292 41.356 262.198 40.087 262.102 38.817C261.974 37.13 259.327 37.116 259.455 38.817Z" fill="white"/>
<path d="M290.852 10.702C287.351 18.023 283.85 25.344 280.35 32.665C279.619 34.193 281.899 35.537 282.634 34C286.135 26.679 289.635 19.359 293.136 12.038C293.867 10.509 291.586 9.165 290.852 10.702Z" fill="white"/>
<path d="M274.674 41.587C273.615 42.708 274.43 44.716 276.053 44.519C276.746 44.435 277.277 43.907 277.452 43.243C277.657 42.467 277.295 41.782 276.67 41.34C276.086 40.927 275.199 41.236 274.86 41.815C274.472 42.477 274.75 43.211 275.334 43.625C275.363 43.646 275.393 43.665 275.422 43.687C275.263 43.529 275.105 43.371 274.947 43.212C274.862 42.957 274.852 42.707 274.921 42.461C275.079 42.303 275.236 42.145 275.396 41.987C275.521 41.953 275.646 41.921 275.771 41.887C275.994 41.948 276.216 42.008 276.44 42.068C276.633 42.244 276.76 42.452 276.819 42.694C276.758 42.916 276.698 43.139 276.638 43.361C276.607 43.393 276.576 43.425 276.545 43.457C277.714 42.221 275.847 40.346 274.674 41.587Z" fill="white"/>
<path d="M304.185 51.6621C310.917 46.5891 304.208 36.1081 297.222 41.2751C294.984 42.9301 294.337 46.2881 296.023 48.5781C298.878 52.4561 302.287 48.461 305.057 46.95C306.34 46.25 305.451 43.957 304.037 44.532C297.452 47.209 304.234 56.432 309.94 50.825C314.797 46.054 314.194 31.945 306.146 30.712C296.795 29.278 287.904 41.412 289.212 49.909C290.451 57.954 300.121 62.9971 306.263 56.3821C307.421 55.1351 305.555 53.2601 304.392 54.5111C300.214 59.0111 293.625 56.2491 292.083 50.7861C290.755 46.0841 292.937 41.4621 296.144 38.0941C299.373 34.7061 307.229 29.8191 309.578 36.9991C310.148 38.7401 310.091 40.764 309.984 42.571C309.943 43.807 309.785 45.03 309.51 46.24C308.845 49.676 307.254 49.958 304.739 47.084C304.399 46.278 304.059 45.4721 303.718 44.6661C302.802 45.1661 301.924 46.1981 300.986 46.5941C299.316 48.2121 299.29 46.9121 300.908 42.6941C305.058 44.2461 305.705 46.474 302.847 49.379C301.508 50.389 302.825 52.6881 304.185 51.6621Z" fill="white"/>
<path d="M223.867 29.619C227.525 34.418 230.815 39.489 234.472 44.288C235.49 45.624 237.79 44.308 236.757 42.952C233.099 38.153 229.809 33.082 226.152 28.284C225.134 26.947 222.834 28.264 223.867 29.619Z" fill="white"/>
<path d="M233.346 27.021C236.532 31.687 240.234 35.9769 243.418 40.6439C244.373 42.0419 246.667 40.7199 245.704 39.3079C242.518 34.6419 238.816 30.3519 235.632 25.6849C234.678 24.2879 232.383 25.609 233.346 27.021Z" fill="white"/>
<path d="M223.989 39.1C228.386 33.803 234.263 30.486 241.063 29.44C242.742 29.182 242.028 26.632 240.36 26.889C233.154 27.997 226.774 31.621 222.119 37.229C221.039 38.53 222.9 40.412 223.989 39.1Z" fill="white"/>
<path d="M226.855 42.5989C232.748 40.2829 238.642 37.9669 244.538 35.6509C246.104 35.0349 245.422 32.4749 243.834 33.0989C237.94 35.4149 232.045 37.7309 226.151 40.0469C224.585 40.6629 225.267 43.2229 226.855 42.5989Z" fill="white"/>
<path d="M254.895 127.874C254.895 128.99 253.599 129.894 251.998 129.894C250.397 129.894 249.1 128.99 249.1 127.874C249.1 126.758 250.397 125.854 251.998 125.854C253.599 125.854 254.895 126.758 254.895 127.874Z" fill="white"/>
<path d="M226.295 130.212C226.491 130.943 225.548 131.833 224.19 132.198C222.832 132.563 221.57 132.266 221.373 131.535C221.177 130.803 222.12 129.914 223.478 129.549C224.836 129.184 226.097 129.481 226.295 130.212Z" fill="white"/>
<defs>
<linearGradient id="paint0_linear_11_135" x1="280.959" y1="199.31" x2="239.21" y2="230.769" gradientUnits="userSpaceOnUse">
<stop offset="0.1112" stop-color="#F98886"/>
<stop offset="0.2919" stop-color="#F99694"/>
</linearGradient>
<linearGradient id="paint1_linear_11_135" x1="280.578" y1="135.604" x2="300.336" y2="197.249" gradientUnits="userSpaceOnUse">
<stop offset="0.1112" stop-color="#F98886"/>
<stop offset="0.2919" stop-color="#F99694"/>
</linearGradient>
<linearGradient id="paint2_linear_11_135" x1="249.26" y1="150.4" x2="182.883" y2="151.551" gradientUnits="userSpaceOnUse">
<stop offset="0.1112" stop-color="#F98886"/>
<stop offset="0.2919" stop-color="#F99694"/>
</linearGradient>
<linearGradient id="paint3_linear_11_135" x1="210.609" y1="108.093" x2="298.593" y2="108.093" gradientUnits="userSpaceOnUse">
<stop offset="0.1112" stop-color="#F98886"/>
<stop offset="0.2919" stop-color="#F99694"/>
</linearGradient>
<linearGradient id="paint4_linear_11_135" x1="282.999" y1="113.748" x2="268.102" y2="169.61" gradientUnits="userSpaceOnUse">
<stop offset="0.1112" stop-color="#F98886"/>
<stop offset="0.2919" stop-color="#F99694"/>
</linearGradient>
<linearGradient id="paint5_linear_11_135" x1="264.135" y1="73.0392" x2="266.291" y2="150.07" gradientUnits="userSpaceOnUse">
<stop offset="0.1112" stop-color="#F98886"/>
<stop offset="0.2919" stop-color="#F99694"/>
</linearGradient>
<linearGradient id="paint6_linear_11_135" x1="245.342" y1="140.315" x2="247.396" y2="148.531" gradientUnits="userSpaceOnUse">
<stop offset="0.1112" stop-color="#F98886"/>
<stop offset="0.2919" stop-color="#F99694"/>
</linearGradient>
</defs>
</svg>
