<svg width="203" height="215" viewBox="0 0 203 215" fill="none" xmlns="http://www.w3.org/2000/svg">
<path d="M79.08 214.187C59.294 214.187 46.775 214.132 41.865 214.024H5.733C2.567 214.024 0 211.457 0 208.291V101.279C0 45.434 45.434 0 101.279 0C128.342 0 153.775 10.535 172.895 29.666C192.023 48.784 202.558 74.217 202.558 101.279V208.291C202.558 211.457 199.991 214.024 196.825 214.024H159.3C136.599 214.098 104.236 214.187 79.08 214.187Z" fill="white"/>
<path d="M197.78 101.279V208.291H6.68799V101.279C6.68799 48.509 49.464 5.73303 102.234 5.73303C128.624 5.73303 152.51 16.425 169.795 33.718C187.088 51.003 197.78 74.889 197.78 101.279Z" fill="#451C49"/>
<path d="M40.584 208.171C40.584 208.171 44.868 93.8331 87.294 87.3161C139.194 79.3441 172.409 86.0411 181.06 101.347C189.71 116.653 192.824 208.171 192.824 208.171C192.824 208.171 40.584 208.809 40.584 208.171Z" fill="#FF6666"/>
<path d="M187.019 208.28H41.8408C41.4648 200.911 40.8348 185.391 41.0578 168.591C41.0878 165.694 41.1598 162.747 41.2508 159.799C41.4848 152.786 41.8908 145.753 42.5618 139.187C42.5618 139.116 42.5718 139.045 42.5818 138.974V138.964C42.8358 136.464 43.1308 134.045 43.4658 131.717C43.6178 130.66 43.7808 129.623 43.9538 128.607C44.4008 125.914 44.9088 123.383 45.4888 121.055C45.7328 120.09 45.9868 119.154 46.2608 118.26C47.7958 113.076 49.7678 109.153 52.2678 107.141C53.8838 105.84 55.6528 104.631 57.5228 103.513C74.3338 93.4411 99.4078 90.6051 99.4078 90.6051L127.47 88.9181L127.907 88.8871C127.907 88.8871 157.463 97.1501 166.763 107.67C178.766 121.228 182.12 135.153 184.244 154.606C186.166 172.331 186.816 196.734 187.019 208.28Z" fill="#256ADD"/>
<path d="M111.127 15.7741C111.127 15.7741 73.7445 15.426 71.3095 23.25C68.8755 31.074 72.8745 35.5951 72.8745 35.5951C72.8745 35.5951 65.9196 40.463 66.4416 45.68C66.9636 50.896 87.6535 56.112 87.6535 56.112L111.127 15.7741Z" fill="#FFC573"/>
<path d="M127.47 65.514V90.608C127.47 98.733 122.136 105.319 115.556 105.319H111.321C104.741 105.319 99.4075 98.733 99.4075 90.608V71.528L127.47 65.514Z" fill="#FF8994"/>
<g opacity="0.13">
<path d="M127.47 65.514V90.608C127.47 98.733 122.136 105.319 115.556 105.319H111.321C104.741 105.319 99.4075 98.733 99.4075 90.608V71.528L127.47 65.514Z" fill="#451C49"/>
</g>
<g opacity="0.44">
<path d="M124.514 79.5271C124.514 79.5271 118.331 86.6741 108.439 87.3571C104.223 87.6471 101.334 87.3471 99.4075 86.9011V81.7531L124.514 79.5271Z" fill="#451C49"/>
</g>
<path d="M129.983 45.4721C129.983 47.5331 129.765 49.5431 129.351 51.4591C129.31 51.6561 129.258 51.8531 129.216 52.0491L127.383 73.2391C127.145 77.5681 124.149 81.8741 119.82 82.0201L90.7844 83.4111C85.9574 83.5661 81.9764 78.3371 81.4484 73.5411L79.0554 49.4391C78.9514 48.7351 78.8894 48.0301 78.8374 47.3051V47.2741C78.7964 46.6731 78.7754 46.0831 78.7754 45.4721C78.7754 34.7001 84.7514 25.4091 93.4004 21.0801C96.7254 19.4021 100.454 18.4701 104.379 18.4701C118.517 18.4691 129.983 30.5571 129.983 45.4721Z" fill="#FF8994"/>
<g opacity="0.13">
<path d="M129.983 45.4721C129.983 47.5331 129.765 49.5431 129.351 51.4591C129.31 51.6561 129.258 51.8531 129.216 52.0491L127.383 73.2391C127.145 77.5681 124.149 81.8741 119.82 82.0201L90.7844 83.4111C85.9574 83.5661 81.9764 78.3371 81.4484 73.5411L79.0554 49.4391C78.9514 48.7351 78.8894 48.0301 78.8374 47.3051V47.2741C78.7964 46.6731 78.7754 46.0831 78.7754 45.4721C78.7754 34.7001 84.7514 25.4091 93.4004 21.0801C96.7254 19.4021 100.454 18.4701 104.379 18.4701C118.517 18.4691 129.983 30.5571 129.983 45.4721Z" fill="#451C49"/>
</g>
<path d="M120.937 55.9931C120.937 55.9931 123.174 49.1571 130.259 49.9031C137.344 50.6491 141.197 61.0891 134.485 65.9361C129.369 69.6311 120.937 66.0601 120.937 66.0601V55.9931Z" fill="#FF8994"/>
<g opacity="0.13">
<path d="M120.937 55.9931C120.937 55.9931 123.174 49.1571 130.259 49.9031C137.344 50.6491 141.197 61.0891 134.485 65.9361C129.369 69.6311 120.937 66.0601 120.937 66.0601V55.9931Z" fill="#451C49"/>
</g>
<path d="M126.074 65.2061C125.937 65.2061 125.823 65.0991 125.816 64.9611C125.65 61.9701 126.376 59.0971 127.858 56.8711C129.508 54.3941 132.12 52.7351 134.847 52.4321C135 52.4131 135.118 52.5201 135.133 52.6611C135.149 52.8031 135.047 52.9311 134.905 52.9471C132.328 53.2321 129.856 54.8071 128.29 57.1571C126.87 59.2911 126.175 62.0521 126.334 64.9321C126.342 65.0751 126.233 65.1971 126.09 65.2051C126.083 65.2061 126.079 65.2061 126.074 65.2061Z" fill="#451C49"/>
<path d="M129.535 50.027C126.98 53.329 125.435 56.074 123.553 59.802C123.134 58.781 122.79 57.414 122.594 56.329C118.634 55.544 115.022 53.128 112.785 49.768C110.548 46.407 110.137 42.327 110.941 38.37C105.849 38.712 100.645 36.724 97.0795 33.072C93.5135 29.421 91.6484 24.172 92.1104 19.089C99.1134 17.374 107.338 15.463 114.532 15.949C120.979 16.384 128.046 17.414 132.312 22.268C136.607 27.155 136.692 34.365 136.135 40.847C135.826 44.438 135.245 48.293 134.686 51.854C133.186 50.94 131.165 50.092 129.535 50.027Z" fill="#FFC573"/>
<path d="M73.7195 45.6801H122.253L130.056 50.2231L128.296 52.2441L124.592 52.8141V58.7791H101.085L96.1735 53.2821L93.3665 58.3111H74.7715L73.7195 45.6801Z" fill="#FFEAE8"/>
<path d="M76.8766 56.908L75.5906 47.201H92.0806V56.908H76.8766Z" fill="#FF6666"/>
<path d="M101.844 56.908L100.384 47.201H119.097V56.908H101.844Z" fill="#256ADD"/>
<path d="M95.8595 65.1661C94.6285 65.1661 92.0445 64.8611 91.6795 62.3471C91.4155 60.5231 95.4995 53.9021 95.9675 53.1531C96.0375 53.0391 96.1885 53.006 96.3025 53.075C96.4165 53.146 96.4515 53.2971 96.3795 53.4111C95.1375 55.4041 91.9585 60.8821 92.1615 62.2771C92.5715 65.1091 96.4045 64.6551 96.4465 64.6511C96.5875 64.6321 96.7025 64.7291 96.7195 64.8621C96.7365 64.9951 96.6415 65.1181 96.5085 65.1341C96.4975 65.1361 96.2455 65.1661 95.8595 65.1661Z" fill="#451C49"/>
<path d="M95.9846 67.8131C95.2706 67.8131 94.5575 67.6821 93.8955 67.4201C93.7705 67.3701 93.7085 67.2291 93.7585 67.1041C93.8085 66.9791 93.9516 66.9171 94.0746 66.9671C95.2416 67.4281 96.5875 67.4451 97.7655 67.0151C98.9445 66.5841 99.9605 65.7031 100.556 64.5981C100.62 64.4791 100.767 64.4351 100.885 64.4991C101.004 64.5621 101.048 64.7101 100.984 64.8291C100.335 66.0381 99.2215 67.0031 97.9315 67.4741C97.3115 67.6991 96.6486 67.8131 95.9846 67.8131Z" fill="#451C49"/>
<path d="M82.5846 149.407C82.2186 147.576 82.7857 145.55 84.0187 144.277C85.2517 143.004 87.1046 142.533 88.7096 143.084C88.4636 141.167 88.4667 139.222 89.2387 137.488C90.0107 135.753 91.6116 134.392 93.3446 134.455C94.5726 134.5 95.6947 135.22 96.6997 136.009C96.9867 133.655 99.0627 131.389 101.187 131.265C103.311 131.141 105.399 132.803 106.043 135.068C106.666 132.258 108.774 129.778 111.185 128.716C111.98 128.366 112.839 128.155 113.69 128.251C115.334 128.436 116.738 129.758 117.584 131.342C118.43 132.927 118.808 134.762 119.152 136.567C119.823 135.528 120.38 134.545 121.421 134.008C122.462 133.471 123.689 133.33 124.767 133.768C125.774 134.177 126.59 135.062 127.132 136.095C127.674 137.128 127.963 138.304 128.139 139.486C129.063 138.434 130.306 137.845 131.574 137.438C132.49 137.144 133.506 137.051 134.373 137.492C134.868 137.743 135.286 138.154 135.65 138.605C136.947 140.21 137.629 142.414 137.497 144.571C138.603 143.755 139.88 143.544 141.206 143.572C142.532 143.599 143.877 144.253 144.653 145.453C145.581 146.888 145.58 148.815 145.391 150.573L82.5846 149.407Z" fill="white"/>
<path d="M146.507 148.518L139.25 178.216L133.335 202.426L131.912 208.28H91.9687L81.3777 150.042L82.5367 149.077L83.7057 148.101C85.1287 146.902 87.2327 146.688 88.9097 147.562L90.4647 148.375L90.7387 148.517L92.1007 147.816C94.1437 146.749 96.6437 146.749 98.6767 147.816L99.6017 148.294L100.039 148.518L101.391 147.817C103.434 146.75 105.934 146.75 107.977 147.817L109.329 148.518L109.776 148.284L109.806 148.274L110.68 147.817C112.723 146.75 115.223 146.75 117.266 147.817L118.455 148.437L118.618 148.518L119.97 147.817C122.013 146.75 124.523 146.75 126.556 147.817L127.816 148.478L127.907 148.519L129.269 147.818C131.312 146.751 133.812 146.751 135.855 147.818L137.186 148.509L137.206 148.519L138.568 147.807C140.611 146.75 143.111 146.75 145.144 147.807L145.449 147.97L146.507 148.518Z" fill="#FFEAE8"/>
<path d="M146.507 148.518L139.25 178.216L133.335 202.426L131.912 208.28H127.298L128.263 202.416L131.678 181.784L132.003 179.822L132.481 176.915L133.762 169.201L134.087 167.249L136.872 150.418L137.187 148.507L137.207 148.517L138.569 147.805C140.612 146.748 143.112 146.748 145.145 147.805L145.45 147.968L146.507 148.518Z" fill="#FF6666"/>
<path d="M127.816 148.477L127.694 150.245L126.779 163.082L126.688 164.363L125.885 175.797L125.499 181.235L125.469 181.672L125.408 182.577L125.317 183.858L124.006 202.397L123.589 208.282H118.131L118.161 202.306L118.192 197.57V197.235L118.212 192.926L118.222 191.066L118.242 186.513L118.252 186.361L118.272 181.96V181.106L118.282 180.344L118.292 178.159L118.312 174.907L118.353 166.4L118.363 164.784L118.444 150.077L118.454 148.441L118.617 148.522L119.969 147.821C122.012 146.754 124.522 146.754 126.555 147.821L127.816 148.477Z" fill="#FF6666"/>
<path d="M109.775 148.284V148.294L109.744 149.91L109.236 180.604L109.175 184.7L109.145 186.397L109.084 190.178L109.033 193.125L108.972 196.489L108.911 200.117L108.891 201.855L108.779 208.278H103.301L102.529 195.665L102.397 193.602L102.123 189.12L101.971 186.701L101.727 182.778L101.605 180.694L99.6935 149.725L99.6025 148.292L100.04 148.516L101.392 147.815C103.435 146.748 105.935 146.748 107.978 147.815L109.33 148.516L109.775 148.284Z" fill="#FF6666"/>
<path d="M96.8167 208.28H91.9687L81.3777 150.042L82.5367 149.077L83.7057 148.101C85.1287 146.902 87.2327 146.688 88.9097 147.562L90.4647 148.375L90.5867 149.564L96.8167 208.28Z" fill="#FF6666"/>
<g opacity="0.27">
<path d="M109.806 148.274L109.796 149.91L109.623 180.614L109.592 184.781L109.582 186.397L109.562 190.229L109.542 193.095L109.532 196.541L109.512 199.895L109.492 201.918L109.461 208.28H91.9687L81.3777 150.042L82.5367 149.077L83.7057 148.101C85.1287 146.902 87.2327 146.688 88.9097 147.562L90.4647 148.375L90.7387 148.517L92.1007 147.816C94.1437 146.749 96.6437 146.749 98.6767 147.816L99.6017 148.294L100.039 148.518L101.391 147.817C103.434 146.75 105.934 146.75 107.977 147.817L109.329 148.518L109.776 148.294V148.284L109.806 148.274Z" fill="#451C49"/>
</g>
<path d="M124.844 183.871C131.154 183.871 136.269 179.183 136.269 173.4C136.269 167.617 131.154 162.929 124.844 162.929C118.534 162.929 113.419 167.617 113.419 173.4C113.419 179.183 118.534 183.871 124.844 183.871Z" fill="#451C49"/>
<path d="M124.844 182.587C130.38 182.587 134.869 178.474 134.869 173.4C134.869 168.326 130.38 164.213 124.844 164.213C119.307 164.213 114.819 168.326 114.819 173.4C114.819 178.474 119.307 182.587 124.844 182.587Z" fill="#FFEAE8"/>
<path d="M147.336 179.894C147.336 179.894 114.638 172.736 115.289 175.502C115.94 178.268 127.327 181.846 127.327 181.846C127.327 181.846 100.16 179.243 99.6718 181.358C99.1838 183.473 119.519 186.564 119.519 186.564C119.519 186.564 98.8588 185.751 98.6958 187.703C98.5328 189.655 119.031 191.119 119.031 191.119V192.909C119.031 192.909 99.3468 192.909 99.3468 194.536C99.3468 196.163 119.356 197.302 119.356 197.302C119.356 197.302 106.993 199.905 106.993 201.369C106.993 202.833 145.547 202.345 145.547 202.345L147.336 179.894Z" fill="#FF8994"/>
<path d="M147.335 180.153C147.195 180.153 147.08 180.041 147.076 179.9C147.073 179.757 147.186 179.638 147.329 179.634L161.196 179.301C161.316 179.302 161.457 179.411 161.461 179.554C161.464 179.697 161.351 179.816 161.208 179.82L147.341 180.153C147.339 180.153 147.337 180.153 147.335 180.153Z" fill="#451C49"/>
<path d="M77.5056 208.28H36.6176C36.3026 205.902 35.9776 203.534 35.6626 201.47C34.4526 193.471 34.4326 166.171 34.4326 166.171L41.2526 159.798L50.2476 151.393L50.2576 151.403C50.5216 151.728 57.0776 159.656 62.0776 166.15C62.2506 166.374 62.4226 166.597 62.5956 166.821C63.9576 168.6 65.1876 170.246 66.0916 171.557C68.9986 175.736 74.2936 195.555 77.5056 208.28Z" fill="#256ADD"/>
<path d="M49.9246 53.854L36.5326 58.89L36.4206 70.076L36.3586 76.981L33.5806 77.328L33.7446 70.944L34.1016 57.154L49.5776 51.239L49.9246 53.854Z" fill="#FFEAE8"/>
<g opacity="0.33">
<path d="M36.4206 70.076L36.3586 76.981L33.5806 77.328L33.7446 70.944L36.4206 70.076Z" fill="#451C49"/>
</g>
<path d="M19.8115 81.694L33.1455 141.223L61.3125 135.137L53.8615 73.058L19.8115 81.694Z" fill="#FF6666"/>
<path d="M15.8447 78.716L17.0627 83.063L56.7047 73.326L55.6617 67.936L15.8447 78.716Z" fill="#FFEAE8"/>
<path d="M34.428 166.173C34.428 166.173 32.863 146.873 32.341 146.004C31.819 145.135 27.647 142.527 27.299 140.266C26.951 138.006 26.604 136.093 26.604 136.093C26.604 136.093 25.387 135.745 25.387 133.833C25.387 131.92 26.082 129.834 26.082 129.834C26.082 129.834 22.431 116.446 23.3 115.75C24.169 115.055 21.909 112.273 22.952 110.186C23.995 108.099 28.864 100.101 30.081 100.275C31.298 100.449 27.994 113.142 27.994 113.142C27.994 113.142 40.861 107.752 41.73 109.491C42.599 111.23 28.69 119.402 28.69 120.271C28.69 121.14 29.038 122.358 29.038 122.358C29.038 122.358 46.599 116.62 47.468 118.707C48.337 120.793 32.167 128.27 32.167 129.139C32.167 130.008 32.341 131.747 32.341 131.747C32.341 131.747 45.903 127.4 46.425 128.617C46.947 129.834 36.514 136.441 36.862 137.137C37.21 137.832 38.601 139.745 38.601 139.745L51.989 137.137C51.989 137.137 53.206 143.744 52.163 146.526C51.12 149.308 50.25 151.394 50.25 151.394L54.423 162.696C54.423 162.696 52.163 174.519 34.428 166.173Z" fill="#FF8994"/>
<g opacity="0.08">
<path d="M34.428 166.173C34.428 166.173 32.863 146.873 32.341 146.004C31.819 145.135 27.647 142.527 27.299 140.266C26.951 138.006 26.604 136.093 26.604 136.093C26.604 136.093 25.387 135.745 25.387 133.833C25.387 131.92 26.082 129.834 26.082 129.834C26.082 129.834 22.431 116.446 23.3 115.75C24.169 115.055 21.909 112.273 22.952 110.186C23.995 108.099 28.864 100.101 30.081 100.275C31.298 100.449 27.994 113.142 27.994 113.142C27.994 113.142 40.861 107.752 41.73 109.491C42.599 111.23 28.69 119.402 28.69 120.271C28.69 121.14 29.038 122.358 29.038 122.358C29.038 122.358 46.599 116.62 47.468 118.707C48.337 120.793 32.167 128.27 32.167 129.139C32.167 130.008 32.341 131.747 32.341 131.747C32.341 131.747 45.903 127.4 46.425 128.617C46.947 129.834 36.514 136.441 36.862 137.137C37.21 137.832 38.601 139.745 38.601 139.745L51.989 137.137C51.989 137.137 53.206 143.744 52.163 146.526C51.12 149.308 50.25 151.394 50.25 151.394L54.423 162.696C54.423 162.696 52.163 174.519 34.428 166.173Z" fill="#451C49"/>
</g>
<path d="M74.1796 202.076C74.0856 202.076 73.9936 202.024 73.9486 201.934L54.1916 162.813C54.1266 162.685 54.1786 162.53 54.3056 162.465C54.4326 162.402 54.5896 162.452 54.6536 162.58L74.4106 201.701C74.4756 201.829 74.4236 201.984 74.2966 202.049C74.2586 202.067 74.2186 202.076 74.1796 202.076Z" fill="#451C49"/>
<path d="M62.1829 178.082C62.1829 178.082 62.1809 178.082 62.1789 178.082C62.0359 178.08 61.9219 177.962 61.9239 177.82L62.4449 139.22C62.4469 139.078 62.5619 138.964 62.7039 138.964C62.7039 138.964 62.7059 138.964 62.7079 138.964C62.8509 138.966 62.9649 139.084 62.9629 139.226L62.4419 177.826C62.4399 177.968 62.3249 178.082 62.1829 178.082Z" fill="#451C49"/>
<path d="M166.131 40.267H159.172L163.253 36.29C163.555 35.996 163.561 35.513 163.267 35.211C162.972 34.909 162.49 34.903 162.188 35.197L158.105 39.176V32.242C158.105 31.821 157.763 31.479 157.342 31.479C156.921 31.479 156.579 31.821 156.579 32.242V39.43L152.475 35.405C152.174 35.11 151.692 35.114 151.396 35.415C151.101 35.716 151.106 36.199 151.406 36.494L155.253 40.267H148.553C148.132 40.267 147.79 40.609 147.79 41.03C147.79 41.451 148.132 41.793 148.553 41.793H155.419L151.408 45.702C151.106 45.996 151.1 46.479 151.394 46.781C151.544 46.934 151.742 47.012 151.94 47.012C152.132 47.012 152.324 46.94 152.472 46.796L156.578 42.794V49.819C156.578 50.24 156.919 50.582 157.341 50.582C157.762 50.582 158.104 50.24 158.104 49.819V43.064L162.117 47C162.266 47.146 162.458 47.218 162.651 47.218C162.849 47.218 163.046 47.142 163.196 46.989C163.491 46.688 163.487 46.205 163.186 45.91L158.989 41.793H166.131C166.552 41.793 166.894 41.451 166.894 41.03C166.894 40.609 166.552 40.267 166.131 40.267Z" fill="white"/>
<path d="M67.6457 33.94H60.6867L64.7677 29.963C65.0697 29.669 65.0757 29.186 64.7817 28.884C64.4867 28.582 64.0047 28.576 63.7027 28.87L59.6197 32.849V25.914C59.6197 25.493 59.2777 25.151 58.8567 25.151C58.4357 25.151 58.0937 25.493 58.0937 25.914V33.102L53.9897 29.077C53.6887 28.782 53.2067 28.786 52.9107 29.088C52.6157 29.389 52.6207 29.872 52.9207 30.167L56.7677 33.94H50.0677C49.6467 33.94 49.3047 34.282 49.3047 34.703C49.3047 35.124 49.6467 35.466 50.0677 35.466H56.9337L52.9227 39.375C52.6207 39.669 52.6147 40.152 52.9087 40.454C53.0587 40.607 53.2567 40.684 53.4547 40.684C53.6467 40.684 53.8387 40.612 53.9867 40.468L58.0927 36.467V43.492C58.0927 43.913 58.4337 44.255 58.8557 44.255C59.2767 44.255 59.6187 43.913 59.6187 43.492V36.737L63.6307 40.672C63.7797 40.818 63.9717 40.89 64.1647 40.89C64.3627 40.89 64.5597 40.814 64.7097 40.661C65.0047 40.36 65.0007 39.877 64.6997 39.582L60.5027 35.465H67.6447C68.0657 35.465 68.4077 35.123 68.4077 34.702C68.4087 34.281 68.0677 33.94 67.6457 33.94Z" fill="white"/>
<path d="M193.097 129.853H186.138L190.219 125.876C190.521 125.582 190.527 125.099 190.233 124.797C189.938 124.495 189.456 124.489 189.154 124.783L185.071 128.762V121.828C185.071 121.407 184.729 121.065 184.308 121.065C183.887 121.065 183.545 121.407 183.545 121.828V129.016L179.441 124.991C179.14 124.696 178.658 124.7 178.362 125.001C178.067 125.302 178.072 125.785 178.372 126.08L182.219 129.853H175.519C175.098 129.853 174.756 130.195 174.756 130.616C174.756 131.037 175.098 131.379 175.519 131.379H182.385L178.374 135.288C178.072 135.582 178.066 136.065 178.36 136.367C178.51 136.52 178.708 136.598 178.907 136.598C179.099 136.598 179.291 136.526 179.439 136.382L183.545 132.381V139.406C183.545 139.827 183.886 140.169 184.308 140.169C184.729 140.169 185.071 139.827 185.071 139.406V132.651L189.084 136.587C189.233 136.733 189.425 136.805 189.618 136.805C189.816 136.805 190.013 136.729 190.163 136.576C190.458 136.275 190.454 135.792 190.153 135.497L185.956 131.38H193.098C193.519 131.38 193.861 131.038 193.861 130.617C193.86 130.195 193.519 129.853 193.097 129.853Z" fill="white"/>
<path d="M32.1218 178.667H25.1628L29.2438 174.69C29.5458 174.396 29.5518 173.913 29.2578 173.611C28.9628 173.309 28.4808 173.303 28.1788 173.597L24.0958 177.576V170.642C24.0958 170.221 23.7538 169.879 23.3328 169.879C22.9118 169.879 22.5698 170.221 22.5698 170.642V177.83L18.4658 173.805C18.1648 173.51 17.6827 173.514 17.3867 173.815C17.0917 174.116 17.0968 174.599 17.3968 174.894L21.2438 178.667H14.5438C14.1228 178.667 13.7808 179.009 13.7808 179.43C13.7808 179.851 14.1228 180.193 14.5438 180.193H21.4098L17.3988 184.102C17.0968 184.396 17.0908 184.879 17.3848 185.181C17.5348 185.334 17.7328 185.411 17.9308 185.411C18.1228 185.411 18.3148 185.339 18.4628 185.195L22.5688 181.194V188.219C22.5688 188.64 22.9098 188.982 23.3318 188.982C23.7528 188.982 24.0948 188.64 24.0948 188.219V181.464L28.1068 185.399C28.2558 185.545 28.4477 185.617 28.6407 185.617C28.8387 185.617 29.0358 185.541 29.1858 185.388C29.4808 185.087 29.4768 184.604 29.1758 184.309L24.9788 180.192H32.1208C32.5418 180.192 32.8838 179.85 32.8838 179.429C32.8848 179.009 32.5438 178.667 32.1218 178.667Z" fill="white"/>
<path d="M174.244 73.431C174.244 73.431 173.437 67.245 169.752 68.531C166.066 69.817 172.001 82.845 172.001 82.845C172.001 82.845 183.568 75.637 181.782 72.07C179.753 68.02 174.244 73.431 174.244 73.431Z" fill="#FF6666"/>
<path d="M176.521 189.55C176.521 189.55 175.714 183.364 172.028 184.65C168.342 185.936 174.277 198.964 174.277 198.964C174.277 198.964 185.844 191.756 184.058 188.189C182.03 184.139 176.521 189.55 176.521 189.55Z" fill="#FF6666"/>
<path d="M68.7259 77.032C68.7259 77.032 64.5619 72.387 62.2499 75.532C59.9369 78.677 72.2009 86.065 72.2009 86.065C72.2009 86.065 77.6629 73.578 74.1729 71.647C70.2089 69.453 68.7259 77.032 68.7259 77.032Z" fill="#FF6666"/>
</svg>
