<svg width="208" height="239" viewBox="0 0 208 239" fill="none" xmlns="http://www.w3.org/2000/svg">
<path d="M6.50302 238.829C3.33702 238.829 0.77002 236.262 0.77002 233.096V126.085C0.77002 86.5231 23.492 51.0201 59.047 34.3671C58.744 30.6771 59.356 27.165 60.826 24.182C62.75 20.276 66.103 17.388 70.028 16.259C70.841 16.025 71.606 15.882 72.279 15.756C72.433 15.727 72.615 15.693 72.795 15.657L72.835 15.514C75.158 7.58905 82.797 1.60505 91.411 0.960048C91.958 0.919048 92.504 0.899048 93.048 0.899048C100.213 0.899048 107.366 4.39105 112.184 10.24C115.194 13.895 117.199 18.478 117.985 23.327C122.395 23.707 126.531 24.488 130.34 25.662C130.595 25.7 130.848 25.754 131.097 25.827C134.816 26.903 138.531 28.154 142.139 29.547C143.617 30.117 145.194 30.755 146.774 31.727C149.499 33.402 151.746 35.829 153.254 38.692C160.702 43.064 167.561 48.366 173.663 54.472C195.339 76.135 203.326 96.4761 203.326 126.085V151.483C204.043 151.976 204.693 152.576 205.254 153.273C206.981 155.416 207.634 158.188 207.048 160.877L203.326 177.936V233.097C203.326 236.263 200.759 238.83 197.593 238.83H6.50302V238.829Z" fill="white"/>
<path d="M198.571 126.085V233.097H7.479V126.085C7.479 73.3151 50.255 30.5391 103.025 30.5391C129.415 30.5391 153.301 41.2311 170.586 58.5241C187.879 75.8091 198.571 99.6951 198.571 126.085Z" fill="#FFC573"/>
<path d="M191.338 225.434L17.155 227.384C17.155 227.384 21.79 168.837 26.177 146.885C30.339 126.061 35.455 109.068 47.895 97.6021C60.335 86.1361 88.798 87.9231 88.798 87.9231C88.798 87.9231 112.541 91.9931 123.758 94.1911C134.985 96.3791 153.282 101.022 163.276 110.778C180.942 128.015 191.338 225.434 191.338 225.434Z" fill="#256ADD"/>
<path d="M108.997 146.799C109.176 146.267 109.295 145.707 109.295 145.114C109.295 142.179 106.916 139.801 103.982 139.801C101.047 139.801 98.6689 142.18 98.6689 145.114C98.6689 145.169 98.6829 145.219 98.6849 145.274C98.6309 145.272 98.5799 145.258 98.5249 145.258C95.5899 145.258 93.2119 147.637 93.2119 150.571C93.2119 153.506 95.5909 155.884 98.5249 155.884C99.9609 155.884 101.259 155.309 102.216 154.383C103.155 155.883 104.81 156.89 106.711 156.89C109.646 156.89 112.025 154.511 112.025 151.577C112.024 149.464 110.782 147.656 108.997 146.799Z" fill="#FFEAE8"/>
<path d="M108.391 125.17C108.391 125.17 114.978 147.125 118.637 168.837C122.296 190.548 124.492 225.677 124.492 225.677" stroke="white" stroke-width="0.4777" stroke-miterlimit="10" stroke-linecap="round" stroke-linejoin="round"/>
<path opacity="0.65" d="M92.7529 225.434H75.2009C72.9169 215.44 70.9969 205.35 69.8599 195.165C69.6119 193.015 69.4209 190.865 69.2869 188.696C69.0189 184.368 69.0579 180.021 69.7359 175.749C70.6149 170.227 72.6309 164.761 76.0709 160.376C76.6159 159.678 77.2079 159.01 77.8389 158.369C77.8679 158.598 77.9059 158.828 77.9439 159.066C79.3099 167.875 81.4889 176.341 83.7909 184.73C87.4599 198.175 91.4249 211.398 92.7529 225.434Z" fill="#451C49"/>
<path d="M111.187 159.216C112.299 160.347 102.885 170.463 100.596 172.767C98.3071 175.071 86.5911 183.776 84.6361 184.467C84.4621 184.531 84.1761 184.621 83.7871 184.736C81.0761 185.548 73.6611 187.53 69.2841 188.701C69.0171 184.366 69.0581 180.024 69.7371 175.753C70.6191 170.226 72.6301 164.766 76.0741 160.381L77.1251 159.513C77.1251 159.513 77.4281 159.343 77.9481 159.064C80.1941 157.847 86.4931 154.435 89.7901 152.814C93.8531 150.82 105.104 144.685 105.925 145.878C106.741 147.033 103.775 149.533 103.439 149.814C103.844 149.61 107.531 147.748 108.185 149.052C108.964 150.618 95.5321 162.895 94.7061 163.653C95.5901 162.964 109.464 152.119 110.598 153.469C112.085 155.25 100.093 167.345 99.3691 168.069C100.036 167.48 110.337 158.355 111.187 159.216Z" fill="#FF8994"/>
<path d="M89.1201 88.822L108.879 127.366L117.417 105.167L89.1201 88.822Z" fill="#FFEAE8"/>
<path d="M123.921 80.768L122.65 85.574L117.987 103.135L116.926 107.119C116.926 107.119 113.353 108.094 102.776 104.358C92.2091 100.612 88.7981 87.924 88.7981 87.924L93.9961 64.668L123.921 80.768Z" fill="#FF8994"/>
<path opacity="0.57" d="M122.65 85.5741L117.987 103.135C115.369 103.794 112.512 103.164 110.104 101.893C106.464 99.9721 103.645 96.7051 101.753 93.0551C100.138 89.9311 97.2241 84.0831 99.8231 80.8061C102.45 77.5001 108.221 76.5261 112.081 77.3951C116.457 78.3891 120.193 81.4941 122.505 85.3351C122.554 85.4111 122.602 85.4971 122.65 85.5741Z" fill="#451C49"/>
<path d="M75.7891 48.716C70.3091 45.991 66.3941 40.34 65.7681 34.251C65.5051 31.689 65.8051 29.026 66.9441 26.716C68.0821 24.405 70.1131 22.481 72.5891 21.769C74.6281 21.182 77.1461 21.261 78.3871 19.54C78.8941 18.836 79.0701 17.956 79.3141 17.123C81.0161 11.313 86.7791 7.12902 92.8161 6.67702C98.8531 6.22502 104.888 9.21202 108.736 13.885C114.368 20.725 115.223 31.112 110.783 38.78C105.398 48.08 95.2911 49.877 85.4241 50.226C82.0681 50.345 78.8581 50.242 75.7891 48.716Z" fill="#FF6666"/>
<path d="M126.747 32.0361C130.467 45.4691 137.312 57.5231 140.828 71.0111C143.566 66.2551 146.313 61.4831 148.407 56.4101C149.953 52.6651 151.149 48.5651 150.338 44.5961C149.67 41.3221 147.596 38.3601 144.75 36.6111C143.59 35.8981 142.321 35.3851 141.051 34.8951C137.581 33.5561 134.053 32.3671 130.481 31.3341C129.317 31.6411 127.928 31.8061 126.747 32.0361Z" fill="#FF6666"/>
<path d="M95.4731 59.964C93.4391 59.184 91.1811 58.748 89.0801 59.324C86.5771 60.012 84.5921 62.125 83.7571 64.583C82.9211 67.041 83.1551 69.785 84.0871 72.208C84.6211 73.596 85.3841 74.908 86.4241 75.971C89.5391 79.153 95.1071 79.453 98.5991 76.688C104.714 71.847 102.245 62.56 95.4731 59.964Z" fill="#FF8994"/>
<path d="M145.39 57.3731C145.39 41.6071 131.783 29.0191 115.672 30.7121C103.268 32.0151 93.276 41.9961 91.924 54.3951C91.422 59.0031 92.1039 63.3991 93.6829 67.3391L96.0299 82.2041C96.9659 88.1311 101.377 92.9121 107.209 94.3221C109.404 94.8531 111.599 95.3831 113.794 95.9141C118.114 96.9581 123.545 99.2431 127.954 97.6781C134.415 95.3851 136.033 87.0481 138.181 81.3361C139.854 76.8881 141.527 72.4411 143.207 67.9761C144.61 64.7231 145.39 61.1401 145.39 57.3731Z" fill="#FF8994"/>
<path d="M122.784 69.3062C122.784 70.5632 121.765 71.5832 120.507 71.5832C119.25 71.5832 118.23 70.5642 118.23 69.3062C118.23 68.0492 119.249 67.0292 120.507 67.0292C121.765 67.0292 122.784 68.0492 122.784 69.3062Z" fill="#451C49"/>
<path d="M138.947 73.0311C138.979 74.2881 137.985 75.3331 136.728 75.3641C135.471 75.3961 134.426 74.4021 134.395 73.1451C134.363 71.8881 135.357 70.8431 136.614 70.8111C137.87 70.7801 138.915 71.7731 138.947 73.0311Z" fill="#451C49"/>
<path d="M132.278 69.0712C131.883 72.0622 131.116 75.0042 130 77.8082C129.685 78.5992 129.197 79.4932 128.35 79.5832C127.778 79.6442 127.249 79.3032 126.776 78.9772" stroke="#451C49" stroke-width="0.7166" stroke-miterlimit="10" stroke-linecap="round" stroke-linejoin="round"/>
<path d="M119.288 62.4521C118.606 62.7481 117.965 63.4031 118.09 64.1361C118.157 64.5281 118.437 64.8581 118.773 65.0701C119.109 65.2821 119.5 65.3901 119.887 65.4781C120.834 65.6941 121.804 65.8101 122.776 65.8231C123.607 65.8341 124.585 65.6811 124.972 64.9461C125.578 63.7931 124.209 62.5391 123.191 62.2311C122.063 61.8901 120.346 61.9931 119.288 62.4521Z" fill="#FF6666"/>
<path d="M141.56 67.6181C142.069 68.1601 142.399 69.0151 141.994 69.6391C141.778 69.9721 141.39 70.1651 140.997 70.2271C140.604 70.2891 140.203 70.2331 139.812 70.1611C138.857 69.9851 137.92 69.7081 137.023 69.3351C136.255 69.0161 135.418 68.4891 135.353 67.6601C135.252 66.3621 137.006 65.7511 138.063 65.8711C139.233 66.0041 140.769 66.7781 141.56 67.6181Z" fill="#FF6666"/>
<path d="M122.796 79.6602C123.234 80.8132 124.081 81.8062 125.151 82.4192C126.221 83.0322 127.506 83.2612 128.722 83.0562" stroke="#451C49" stroke-width="0.7166" stroke-miterlimit="10" stroke-linecap="round" stroke-linejoin="round"/>
<path d="M91.722 59.6301C99.708 59.5951 98.127 65.3081 98.512 68.4531C99.859 66.6511 103.61 66.2571 105.831 65.8911C114.021 64.5411 117.293 61.9041 123.273 56.1481C129.706 49.9561 132.102 40.2941 130.69 31.4771C121.687 28.4521 111.769 28.3381 102.329 29.3841C99.724 29.6731 97.085 30.0491 94.696 31.1281C89.544 33.4561 86.268 38.8021 85.007 44.3141C83.747 49.8251 84.346 56.8421 84.811 62.4761C84.811 62.4761 88.383 59.6451 91.722 59.6301Z" fill="#FF6666"/>
<path d="M134.47 50.4241C134.899 51.3071 135.523 52.3051 136.504 52.3401C137.718 49.7961 137.274 46.8091 136.805 44.0301C137.956 46.9691 139.521 49.7461 141.439 52.2531C142.226 53.2811 143.462 54.3711 144.653 53.8621C145.136 53.6551 145.483 53.2141 145.717 52.7431C146.531 51.1071 146.175 49.1461 145.643 47.3981C144.1 42.3241 140.999 37.4941 136.483 34.5911C134.918 33.5851 130.865 31.1671 129.157 32.9211C127.749 34.3661 129.61 38.0951 130.107 39.6161C131.313 43.3121 132.772 46.9261 134.47 50.4241Z" fill="#FF6666"/>
<path d="M85.8711 62.4551C87.0371 61.6131 88.4851 60.9601 89.8871 61.2841C90.9211 61.5231 91.7851 62.2771 92.3361 63.1841C92.8871 64.0911 93.1541 65.1431 93.3111 66.1931C93.8221 69.6211 93.1931 73.2091 91.5461 76.2581" stroke="#451C49" stroke-width="0.7129" stroke-miterlimit="10" stroke-linecap="round" stroke-linejoin="round"/>
<path d="M90.3391 75.3441C90.3391 76.0511 89.7661 76.6251 89.0581 76.6251C88.3511 76.6251 87.7771 76.0521 87.7771 75.3441C87.7771 74.6361 88.3501 74.0631 89.0581 74.0631C89.7661 74.0631 90.3391 74.6371 90.3391 75.3441Z" fill="#FFEAE8"/>
<path d="M198.571 201.041H7.479V233.097H198.571V201.041Z" fill="#451C49"/>
<path d="M87.8551 212.335L108.156 157.792C108.639 156.494 109.878 155.633 111.263 155.633H199.185C201.301 155.633 202.875 157.588 202.424 159.655L190.666 213.547C190.335 215.065 189.004 216.149 187.45 216.155C173.586 216.213 109.322 216.493 91.0101 216.806C88.6761 216.846 87.0411 214.524 87.8551 212.335Z" fill="#4FDEFF"/>
<path d="M91.54 203.217L97.958 203.4L108.41 173.145L103.642 170.394" stroke="#451C49" stroke-width="0.808" stroke-miterlimit="10" stroke-linecap="round" stroke-linejoin="round"/>
<path d="M195.969 164.69C195.841 166.554 194.311 167.968 192.552 167.848C190.792 167.727 189.47 166.118 189.597 164.254C189.725 162.39 191.255 160.976 193.015 161.096C194.774 161.216 196.096 162.825 195.969 164.69Z" stroke="#451C49" stroke-width="0.7242" stroke-miterlimit="10" stroke-linecap="round" stroke-linejoin="round"/>
<path d="M187.823 187.049C186.728 186.833 186.008 185.759 186.225 184.664L188.421 173.543C188.637 172.448 189.711 171.728 190.806 171.945C191.901 172.161 192.621 173.235 192.404 174.33L190.208 185.451C189.992 186.546 188.919 187.265 187.823 187.049Z" stroke="#451C49" stroke-width="0.7455" stroke-miterlimit="10" stroke-linecap="round" stroke-linejoin="round"/>
<path d="M107.172 219.995L112.458 204.724C113.001 203.156 114.461 202.092 116.119 202.054L175.337 200.722C177.977 200.663 179.938 203.15 179.264 205.703L176.072 217.794L187.349 223.845L115.286 227.421L107.172 219.995Z" fill="#FF6666"/>
<path opacity="0.51" d="M107.172 219.995L112.458 204.724C113.001 203.156 114.461 202.092 116.119 202.054L175.337 200.722C177.977 200.663 179.938 203.15 179.264 205.703L176.072 217.794L187.349 223.845L115.286 227.421L107.172 219.995Z" fill="#451C49"/>
<path d="M107.172 219.995L176.072 217.795" stroke="#451C49" stroke-width="0.808" stroke-miterlimit="10" stroke-linecap="round" stroke-linejoin="round"/>
<path d="M13.434 145.639C13.038 143.659 13.651 141.467 14.985 140.09C16.319 138.713 18.323 138.204 20.059 138.8C19.793 136.726 19.796 134.623 20.631 132.747C21.466 130.871 23.198 129.398 25.072 129.467C26.4 129.516 27.614 130.295 28.701 131.148C29.012 128.601 31.256 126.15 33.554 126.017C35.851 125.883 38.11 127.681 38.807 130.131C39.481 127.092 41.761 124.409 44.368 123.26C45.228 122.881 46.157 122.653 47.077 122.757C48.855 122.957 50.374 124.387 51.289 126.101C52.205 127.815 52.613 129.8 52.985 131.753C53.711 130.63 54.313 129.566 55.439 128.986C56.565 128.405 57.893 128.252 59.058 128.726C60.147 129.169 61.03 130.126 61.616 131.243C62.202 132.36 62.514 133.633 62.705 134.91C63.704 133.772 65.049 133.135 66.42 132.694C67.411 132.376 68.509 132.275 69.448 132.752C69.983 133.024 70.435 133.468 70.83 133.956C72.232 135.692 72.971 138.076 72.828 140.409C74.025 139.526 75.406 139.299 76.839 139.328C78.273 139.358 79.728 140.064 80.568 141.363C81.572 142.915 81.571 144.999 81.366 146.901L13.434 145.639Z" fill="white"/>
<path d="M82.5771 144.83L65.4151 221.478L60.8711 221.429L57.3891 221.397L51.8491 221.34L42.4701 221.243L41.6761 221.235L36.1691 221.178L29.3821 221.113L24.5391 221.064L12.1321 146.62L14.6511 144.328C16.1901 142.919 18.4571 142.668 20.2721 143.696L21.9571 144.66L22.2571 144.83L23.7231 143.996C25.9341 142.741 28.6391 142.741 30.8421 143.996L31.8381 144.563L32.3081 144.83L33.7741 143.996C35.9851 142.741 38.6901 142.741 40.9011 143.996L42.3591 144.83L42.8451 144.555L42.8771 144.539L43.8251 143.996C46.0361 142.741 48.7411 142.741 50.9441 143.996L52.2321 144.733L52.4101 144.83L53.8761 143.996C56.0871 142.741 58.7921 142.741 60.9951 143.996L62.3561 144.773L62.4611 144.83L63.9351 143.996C66.1381 142.741 68.8431 142.741 71.0541 143.996L72.4961 144.814L72.5201 144.83L73.9941 143.988C76.1971 142.741 78.9021 142.741 81.1051 143.988L82.5771 144.83Z" fill="#FFEAE8"/>
<path d="M82.5771 144.83L65.4151 221.478L60.8711 221.429L72.4931 144.813L72.5171 144.829L73.9911 143.987C76.1941 142.74 78.8991 142.74 81.1021 143.987L82.5771 144.83Z" fill="#FF6666"/>
<path d="M62.3541 144.774L57.3891 221.398L51.8491 221.341L52.2301 144.733L52.4081 144.83L53.8741 143.996C56.0851 142.741 58.7901 142.741 60.9931 143.996L62.3541 144.774Z" fill="#FF6666"/>
<path d="M42.8432 144.555L41.6772 221.236L36.1702 221.179L31.8372 144.563L32.3072 144.83L33.7732 143.996C35.9842 142.741 38.6892 142.741 40.9002 143.996L42.3582 144.83L42.8432 144.555Z" fill="#FF6666"/>
<path d="M29.3831 221.114L24.5401 221.065L12.1321 146.62L14.6511 144.328C16.1901 142.919 18.4571 142.668 20.2721 143.696L21.9571 144.66L29.3831 221.114Z" fill="#FF6666"/>
<path opacity="0.27" d="M42.8761 144.539L42.4711 221.244L24.5401 221.066L12.1321 146.62L14.6511 144.328C16.1901 142.919 18.4571 142.668 20.2721 143.696L22.2561 144.83L23.7221 143.996C25.9331 142.741 28.6381 142.741 30.8411 143.996L32.3071 144.83L33.7731 143.996C35.9841 142.741 38.6891 142.741 40.9001 143.996L42.3581 144.83L42.8761 144.539Z" fill="#451C49"/>
<path d="M59.1422 186.55C65.9673 186.55 71.5002 181.017 71.5002 174.192C71.5002 167.367 65.9673 161.834 59.1422 161.834C52.317 161.834 46.7842 167.367 46.7842 174.192C46.7842 181.017 52.317 186.55 59.1422 186.55Z" fill="#451C49"/>
<path d="M59.1421 185.035C65.1305 185.035 69.9851 180.18 69.9851 174.192C69.9851 168.204 65.1305 163.349 59.1421 163.349C53.1536 163.349 48.2991 168.204 48.2991 174.192C48.2991 180.18 53.1536 185.035 59.1421 185.035Z" fill="#FFEAE8"/>
<path d="M169.283 68.512H162.324L166.405 64.535C166.707 64.241 166.713 63.758 166.419 63.456C166.124 63.154 165.642 63.148 165.34 63.442L161.257 67.421V60.487C161.257 60.066 160.915 59.724 160.494 59.724C160.073 59.724 159.731 60.066 159.731 60.487V67.675L155.627 63.65C155.326 63.355 154.844 63.359 154.548 63.66C154.253 63.961 154.257 64.444 154.558 64.739L158.405 68.512H151.705C151.284 68.512 150.942 68.854 150.942 69.275C150.942 69.696 151.284 70.038 151.705 70.038H158.571L154.56 73.947C154.258 74.241 154.252 74.724 154.546 75.026C154.696 75.179 154.894 75.257 155.092 75.257C155.284 75.257 155.476 75.185 155.624 75.041L159.73 71.04V78.065C159.73 78.486 160.071 78.828 160.493 78.828C160.914 78.828 161.256 78.486 161.256 78.065V71.31L165.269 75.245C165.418 75.391 165.61 75.463 165.803 75.463C166.001 75.463 166.198 75.387 166.348 75.234C166.643 74.933 166.639 74.45 166.338 74.155L162.141 70.038H169.283C169.704 70.038 170.046 69.696 170.046 69.275C170.046 68.854 169.704 68.512 169.283 68.512Z" fill="white"/>
<path d="M189.115 134.866H182.156L186.237 130.889C186.539 130.595 186.545 130.112 186.251 129.81C185.956 129.508 185.474 129.502 185.172 129.796L181.089 133.775V126.841C181.089 126.42 180.747 126.078 180.326 126.078C179.905 126.078 179.563 126.42 179.563 126.841V134.029L175.459 130.004C175.158 129.709 174.676 129.714 174.38 130.014C174.085 130.315 174.09 130.798 174.391 131.093L178.238 134.866H171.538C171.117 134.866 170.775 135.208 170.775 135.629C170.775 136.05 171.117 136.392 171.538 136.392H178.404L174.393 140.301C174.091 140.595 174.085 141.078 174.379 141.38C174.529 141.533 174.727 141.61 174.925 141.61C175.117 141.61 175.309 141.538 175.457 141.394L179.563 137.393V144.418C179.563 144.839 179.904 145.181 180.326 145.181C180.747 145.181 181.089 144.839 181.089 144.418V137.663L185.102 141.598C185.251 141.744 185.443 141.816 185.636 141.816C185.834 141.816 186.031 141.74 186.181 141.587C186.476 141.286 186.472 140.803 186.171 140.508L181.974 136.391H189.116C189.537 136.391 189.879 136.049 189.879 135.628C189.878 135.208 189.537 134.866 189.115 134.866Z" fill="white"/>
<path d="M67.7089 90.01H60.7499L64.8309 86.033C65.1329 85.739 65.1389 85.256 64.8449 84.954C64.5499 84.652 64.0679 84.646 63.7659 84.94L59.6829 88.919V81.985C59.6829 81.564 59.3409 81.222 58.9199 81.222C58.4989 81.222 58.1569 81.564 58.1569 81.985V89.173L54.0529 85.148C53.7519 84.853 53.2699 84.857 52.9739 85.158C52.6789 85.459 52.6829 85.942 52.9839 86.237L56.8309 90.01H50.1309C49.7099 90.01 49.3679 90.352 49.3679 90.773C49.3679 91.194 49.7099 91.536 50.1309 91.536H56.9969L52.9859 95.445C52.6839 95.739 52.6779 96.222 52.9719 96.524C53.1219 96.677 53.3199 96.755 53.5179 96.755C53.7099 96.755 53.9019 96.683 54.0499 96.539L58.1559 92.538V99.563C58.1559 99.984 58.4969 100.326 58.9189 100.326C59.3399 100.326 59.6819 99.984 59.6819 99.563V92.808L63.6949 96.743C63.8439 96.889 64.0359 96.961 64.2289 96.961C64.4269 96.961 64.6239 96.885 64.7739 96.732C65.0689 96.431 65.0649 95.948 64.7639 95.653L60.5669 91.536H67.7089C68.1299 91.536 68.4719 91.194 68.4719 90.773C68.4719 90.352 68.1299 90.01 67.7089 90.01Z" fill="white"/>
<path d="M172.754 103.652C172.754 103.652 174.016 97.543 170.112 97.552C166.208 97.561 167.554 111.814 167.554 111.814C167.554 111.814 180.843 108.788 180.322 104.833C179.731 100.342 172.754 103.652 172.754 103.652Z" fill="#FF6666"/>
<path d="M56.2421 56.96C56.2421 56.96 53.1681 51.532 50.2361 54.11C47.3041 56.688 57.7041 66.527 57.7041 66.527C57.7041 66.527 65.7101 55.497 62.7141 52.865C59.3111 49.875 56.2421 56.96 56.2421 56.96Z" fill="#FF6666"/>
<path d="M25.505 102.009C25.505 102.009 22.431 96.5809 19.499 99.1589C16.567 101.737 26.967 111.576 26.967 111.576C26.967 111.576 34.973 100.547 31.977 97.9139C28.574 94.9239 25.505 102.009 25.505 102.009Z" fill="#FF6666"/>
</svg>
